<svg xmlns="http://www.w3.org/2000/svg" version="1.1" xmlns:xlink="http://www.w3.org/1999/xlink" width="98" height="98"><svg width="98" height="98" viewBox="0 0 98 98" fill="none" xmlns="http://www.w3.org/2000/svg">
<path d="M97.565 35.167V62.395C97.5629 63.1169 97.275 63.8086 96.7644 64.3188C96.2538 64.8291 95.5619 65.1164 94.84 65.118H81.457V78.73C81.4549 79.4515 81.1673 80.1429 80.6571 80.6531C80.1469 81.1633 79.4555 81.4509 78.734 81.453H65.118V94.842C65.1162 95.5629 64.8292 96.2539 64.3198 96.764C63.8104 97.2742 63.1199 97.5621 62.399 97.565H35.167C34.4461 97.5621 33.7556 97.2742 33.2462 96.764C32.7368 96.2539 32.4498 95.5629 32.448 94.842V81.457H18.832C18.1098 81.4549 17.4178 81.1668 16.9075 80.6557C16.3972 80.1446 16.1101 79.4522 16.109 78.73V65.118H2.723C2.00146 65.1159 1.31008 64.8283 0.79988 64.3181C0.289675 63.8079 0.00211054 63.1165 0 62.395V35.167C0.00211054 34.4455 0.289675 33.7541 0.79988 33.2439C1.31008 32.7337 2.00146 32.4461 2.723 32.444H16.109V18.83C16.1111 18.1085 16.3987 17.4171 16.9089 16.9069C17.4191 16.3967 18.1105 16.1091 18.832 16.107H32.448V2.719C32.4506 1.99869 32.7379 1.30863 33.2473 0.799287C33.7566 0.289946 34.4467 0.00263467 35.167 0H62.399C63.1193 0.00263467 63.8094 0.289946 64.3187 0.799287C64.8281 1.30863 65.1154 1.99869 65.118 2.719V16.109H78.734C79.4552 16.1111 80.1463 16.3984 80.6564 16.9082C81.1666 17.4179 81.4544 18.1088 81.457 18.83V32.444H94.84C95.5619 32.4456 96.2538 32.7329 96.7644 33.2432C97.275 33.7534 97.5629 34.4451 97.565 35.167ZM76.611 48.783C76.4068 48.0934 76.1324 47.4266 75.792 46.793C75.3336 46.2183 74.7528 45.7531 74.092 45.431L68.992 42.446C68.676 42.263 68.36 42.079 68.044 41.892C67.673 41.677 67.295 41.463 66.909 41.276C67.049 40.87 67.166 40.453 67.276 40.039C67.37 39.684 67.463 39.329 67.553 38.978C68.0563 37.07 68.5563 35.1637 69.053 33.259C69.2913 32.5624 69.3739 31.822 69.295 31.09C69.0868 30.4019 68.8097 29.7365 68.468 29.104C67.8355 28.7623 67.1701 28.4852 66.482 28.277C65.75 28.1981 65.0096 28.2807 64.313 28.519L58.594 30.019L57.533 30.3C57.119 30.409 56.698 30.526 56.292 30.667C56.109 30.281 55.892 29.902 55.679 29.532C55.492 29.216 55.308 28.9 55.125 28.584L52.14 23.484C51.8168 22.8231 51.3505 22.2424 50.775 21.784C50.1436 21.442 49.4779 21.1675 48.789 20.965C48.1001 21.1675 47.4344 21.442 46.803 21.784C46.2275 22.2424 45.7612 22.8231 45.438 23.484L42.453 28.584C42.27 28.9 42.086 29.216 41.899 29.532C41.684 29.903 41.47 30.281 41.286 30.667C40.88 30.527 40.459 30.41 40.045 30.3L38.984 30.019L33.265 28.519C32.5684 28.2807 31.828 28.1981 31.096 28.277C30.4079 28.4852 29.7425 28.7623 29.11 29.104C28.7683 29.7365 28.4912 30.4019 28.283 31.09C28.2041 31.822 28.2867 32.5624 28.525 33.259C29.0243 35.167 29.5243 37.0733 30.025 38.978C30.115 39.329 30.208 39.684 30.302 40.039C30.411 40.453 30.528 40.87 30.669 41.276C30.283 41.463 29.904 41.676 29.534 41.892C29.218 42.079 28.902 42.263 28.586 42.446L23.486 45.431C22.8252 45.7531 22.2444 46.2183 21.786 46.793C21.4456 47.4266 21.1712 48.0934 20.967 48.783C21.1719 49.4711 21.4463 50.1365 21.786 50.769C22.2454 51.3435 22.8258 51.8096 23.486 52.134C25.1867 53.1287 26.8867 54.1223 28.586 55.115C28.902 55.302 29.218 55.486 29.534 55.669C29.905 55.887 30.283 56.102 30.669 56.285C30.529 56.691 30.412 57.108 30.302 57.526C30.208 57.881 30.115 58.232 30.025 58.587C29.5217 60.495 29.0217 62.4013 28.525 64.306C28.2867 65.0026 28.2041 65.743 28.283 66.475C28.4905 67.1621 28.7676 67.8262 29.11 68.457C29.7409 68.802 30.4067 69.0792 31.096 69.284C31.8277 69.3663 32.5685 69.285 33.265 69.046C35.173 68.5467 37.0793 68.0467 38.984 67.546L40.04 67.267C40.454 67.158 40.875 67.041 41.281 66.9C41.464 67.286 41.681 67.665 41.894 68.035C42.081 68.351 42.265 68.667 42.448 68.983L45.433 74.083C45.7583 74.7426 46.2242 75.3229 46.798 75.783C47.4302 76.1234 48.0957 76.3978 48.784 76.602C49.4723 76.3978 50.1378 76.1234 50.77 75.783C51.3438 75.3229 51.8097 74.7426 52.135 74.083L55.12 68.983C55.303 68.667 55.487 68.351 55.674 68.035C55.889 67.664 56.103 67.286 56.287 66.9C56.693 67.04 57.114 67.157 57.528 67.267L58.589 67.544C60.497 68.0433 62.4033 68.5433 64.308 69.044C65.0045 69.283 65.7453 69.3643 66.477 69.282C67.1663 69.0772 67.832 68.8 68.463 68.455C68.8054 67.8242 69.0825 67.1601 69.29 66.473C69.3689 65.741 69.2863 65.0006 69.048 64.304C68.5487 62.396 68.0487 60.4897 67.548 58.585C67.458 58.23 67.365 57.879 67.271 57.524C67.162 57.107 67.045 56.689 66.904 56.283C67.29 56.1 67.669 55.883 68.039 55.667C68.355 55.484 68.671 55.3 68.987 55.113C70.689 54.1243 72.389 53.13 74.087 52.13C74.7472 51.8056 75.3276 51.3395 75.787 50.765C76.1282 50.134 76.4043 49.4699 76.611 48.783Z" fill="black"></path>
<path d="M75.792 46.793C76.1324 47.4266 76.4068 48.0934 76.611 48.783C76.4061 49.4711 76.1317 50.1365 75.792 50.769C75.3326 51.3435 74.7522 51.8096 74.092 52.134C72.3907 53.1287 70.6907 54.1223 68.992 55.115C68.7501 54.8907 68.5246 54.6494 68.317 54.393C67.307 53.125 66.745 51.537 65.717 50.281C65.1424 49.5807 64.3788 49.06 63.517 48.781C64.3794 48.5031 65.1432 47.9822 65.717 47.281C66.743 46.025 67.305 44.441 68.317 43.173C68.5235 42.9144 68.7491 42.6718 68.992 42.447L74.092 45.432C74.7527 45.7538 75.3335 46.2187 75.792 46.793Z" fill="white"></path>
<path d="M69.288 31.09C69.3669 31.822 69.2843 32.5624 69.046 33.259C68.5467 35.167 68.0467 37.0733 67.546 38.978C67.2166 38.9878 66.8869 38.9761 66.559 38.943C64.948 38.76 63.43 38.034 61.815 37.874C60.9144 37.7816 60.0064 37.9525 59.201 38.366C59.6127 37.56 59.7835 36.6525 59.693 35.752C59.533 34.137 58.807 32.619 58.624 31.008C58.5908 30.6788 58.5792 30.3477 58.589 30.017L64.308 28.517C65.0046 28.2787 65.745 28.1961 66.477 28.275C67.1651 28.4832 67.8305 28.7603 68.463 29.102C68.8042 29.7352 69.0806 30.4013 69.288 31.09Z" fill="white"></path>
<path d="M69.046 64.306C69.2843 65.0026 69.3669 65.743 69.288 66.475C69.0805 67.1621 68.8034 67.8262 68.461 68.457C67.83 68.802 67.1643 69.0792 66.475 69.284C65.7433 69.3662 65.0025 69.285 64.306 69.046C62.398 68.5467 60.4917 68.0467 58.587 67.546C58.5772 67.2166 58.5889 66.8869 58.622 66.559C58.805 64.944 59.531 63.43 59.691 61.815C59.7821 60.9145 59.6113 60.0068 59.199 59.201C60.005 59.6127 60.9125 59.7835 61.813 59.693C63.428 59.529 64.946 58.807 66.557 58.624C66.8849 58.5909 67.2146 58.5792 67.544 58.589C68.0473 60.497 68.548 62.4027 69.046 64.306Z" fill="white"></path>
<path d="M68.036 41.892C68.352 42.079 68.668 42.263 68.984 42.446C68.7411 42.6708 68.5155 42.9134 68.309 43.172C67.299 44.44 66.737 46.024 65.709 47.28C65.1353 47.9812 64.3714 48.5021 63.509 48.78C62.9567 48.5996 62.3613 48.5996 61.809 48.78C61.6812 48.7401 61.5571 48.6893 61.438 48.628L61.36 48.577C60.771 47.793 63.35 45.366 64.017 44.648C64.684 43.93 65.581 43.439 66.182 42.666C66.495 42.2435 66.7375 41.7731 66.9 41.273C67.287 41.463 67.665 41.678 68.036 41.892Z" fill="black"></path>
<path d="M68.984 55.115C68.668 55.302 68.352 55.486 68.036 55.669C67.665 55.887 67.287 56.102 66.901 56.285C66.7384 55.7862 66.496 55.3171 66.183 54.896C65.583 54.12 64.683 53.628 64.018 52.914C63.353 52.2 60.772 49.766 61.361 48.985L61.439 48.934C61.5573 48.8711 61.6816 48.8201 61.81 48.782C62.3623 48.9624 62.9577 48.9624 63.51 48.782C64.3718 49.061 65.1354 49.5816 65.71 50.282C66.736 51.538 67.298 53.126 68.31 54.394C68.5173 54.65 68.7425 54.891 68.984 55.115Z" fill="black"></path>
<path d="M67.544 38.978C67.454 39.329 67.361 39.684 67.267 40.039C67.158 40.453 67.041 40.87 66.9 41.276C66.4316 41.0396 65.9287 40.8789 65.41 40.8C64.435 40.679 63.455 40.964 62.476 40.929C61.497 40.894 57.958 40.999 57.818 40.029L57.838 39.939C57.8805 39.8103 57.9326 39.6849 57.994 39.564C58.5148 39.3044 58.9378 38.8835 59.2 38.364C60.0054 37.9505 60.9134 37.7796 61.814 37.872C63.429 38.032 64.947 38.758 66.558 38.941C66.8855 38.9747 67.2149 38.9871 67.544 38.978Z" fill="black"></path>
<path d="M67.267 57.526C67.361 57.881 67.454 58.232 67.544 58.587C67.2146 58.5772 66.8849 58.5889 66.557 58.622C64.946 58.805 63.428 59.527 61.813 59.691C60.9125 59.7815 60.005 59.6107 59.199 59.199C58.9362 58.6785 58.5135 58.2558 57.993 57.993C57.9323 57.8732 57.8802 57.7492 57.837 57.622L57.817 57.532C57.957 56.561 61.496 56.67 62.475 56.632C63.454 56.594 64.433 56.882 65.409 56.757C65.9286 56.6817 66.432 56.5209 66.899 56.281C67.041 56.691 67.158 57.108 67.267 57.526Z" fill="black"></path>
<path d="M66.905 41.277C66.7425 41.7771 66.5 42.2475 66.187 42.67C65.587 43.442 64.687 43.934 64.022 44.652C63.357 45.37 60.776 47.797 61.365 48.581L61.443 48.632C61.562 48.6933 61.6862 48.7442 61.814 48.784C61.6856 48.8222 61.5613 48.8731 61.443 48.936L61.365 48.987C60.776 49.767 63.355 52.198 64.022 52.916C64.689 53.634 65.586 54.122 66.187 54.898C66.5 55.3191 66.7425 55.7882 66.905 56.287C66.438 56.5269 65.9345 56.6877 65.415 56.763C64.44 56.888 63.46 56.603 62.481 56.638C61.502 56.673 57.963 56.564 57.823 57.538L57.843 57.628C57.8862 57.7552 57.9383 57.8792 57.999 57.999C57.881 57.9344 57.7567 57.8821 57.628 57.843L57.538 57.823C56.57 57.96 56.676 61.502 56.638 62.481C56.6 63.46 56.888 64.439 56.767 65.411C56.6885 65.9316 56.5264 66.4361 56.287 66.905C55.7882 66.7425 55.3191 66.5 54.898 66.187C54.126 65.587 53.634 64.687 52.916 64.022C52.198 63.357 49.768 60.776 48.987 61.365H48.581C48.394 61.225 48.109 61.265 47.773 61.424C46.6276 62.1561 45.579 63.0297 44.652 64.024C43.934 64.691 43.443 65.585 42.67 66.189C42.2489 66.502 41.7798 66.7445 41.281 66.907C41.0416 66.4381 40.8795 65.9336 40.801 65.413C40.68 64.442 40.965 63.462 40.93 62.483C40.895 61.504 41 57.961 40.03 57.825L39.94 57.845C39.8113 57.8841 39.687 57.9364 39.569 58.001C39.6297 57.8812 39.6818 57.7572 39.725 57.63L39.745 57.54C39.605 56.569 36.066 56.678 35.087 56.64C34.108 56.602 33.129 56.89 32.153 56.765C31.6334 56.6897 31.13 56.5289 30.663 56.289C30.8257 55.7883 31.0688 55.3175 31.383 54.895C31.983 54.119 32.883 53.627 33.548 52.913C34.213 52.199 36.794 49.765 36.205 48.984L36.127 48.933C36.0087 48.8701 35.8844 48.8192 35.756 48.781C35.8838 48.7411 36.008 48.6903 36.127 48.629L36.205 48.578C36.794 47.794 34.215 45.367 33.548 44.649C32.881 43.931 31.984 43.44 31.383 42.667C31.07 42.2445 30.8275 41.7741 30.665 41.274C31.1334 41.0376 31.6363 40.8769 32.155 40.798C33.13 40.677 34.11 40.962 35.089 40.927C36.068 40.892 39.607 40.997 39.747 40.027L39.727 39.937C39.6845 39.8083 39.6324 39.6829 39.571 39.562C39.6896 39.6263 39.8138 39.6799 39.942 39.722L40.032 39.738C41 39.601 40.894 36.063 40.932 35.084C40.97 34.105 40.682 33.126 40.803 32.15C40.8809 31.6305 41.043 31.1273 41.283 30.66C41.7818 30.8225 42.2509 31.065 42.672 31.378C43.444 31.978 43.936 32.872 44.654 33.543C45.372 34.214 47.802 36.789 48.583 36.2H48.989C49.0958 36.2578 49.2156 36.2874 49.337 36.286C49.4585 36.2846 49.5776 36.2522 49.683 36.192C50.8799 35.4651 51.9686 34.5733 52.917 33.543C53.635 32.872 54.126 31.979 54.899 31.378C55.3201 31.065 55.7892 30.8225 56.288 30.66C56.528 31.1273 56.6901 31.6305 56.768 32.15C56.889 33.125 56.604 34.105 56.639 35.084C56.674 36.063 56.569 39.602 57.539 39.738L57.629 39.722C57.7572 39.6799 57.8814 39.6263 58 39.562C57.9386 39.6829 57.8865 39.8083 57.844 39.937L57.824 40.027C57.964 40.995 61.503 40.889 62.482 40.927C63.461 40.965 64.44 40.677 65.416 40.798C65.9345 40.878 66.4371 41.0396 66.905 41.277Z" fill="white"></path>
<path d="M61.809 48.786C62.3613 48.6056 62.9567 48.6056 63.509 48.786C62.9567 48.9664 62.3613 48.9664 61.809 48.786Z" fill="black"></path>
<path d="M59.691 35.752C59.7815 36.6525 59.6107 37.56 59.199 38.366C58.6799 38.6279 58.2575 39.0482 57.993 39.566C57.8744 39.6303 57.7502 39.6839 57.622 39.726L57.532 39.742C56.564 39.605 56.67 36.067 56.632 35.088C56.594 34.109 56.882 33.13 56.761 32.154C56.6831 31.6345 56.521 31.1313 56.281 30.664C56.687 30.524 57.108 30.407 57.522 30.297L58.583 30.016C58.5731 30.3467 58.5848 30.6778 58.618 31.007C58.805 32.619 59.531 34.137 59.691 35.752Z" fill="black"></path>
<path d="M59.199 59.199C59.6113 60.0048 59.7821 60.9125 59.691 61.813C59.531 63.428 58.805 64.942 58.622 66.557C58.5889 66.8849 58.5772 67.2146 58.587 67.544L57.526 67.267C57.112 67.158 56.691 67.041 56.285 66.9C56.5244 66.4311 56.6865 65.9266 56.765 65.406C56.886 64.435 56.601 63.455 56.636 62.476C56.671 61.497 56.566 57.954 57.536 57.818L57.626 57.838C57.7547 57.8771 57.879 57.9294 57.997 57.994C58.259 58.5135 58.6801 58.9357 59.199 59.199Z" fill="black"></path>
<path d="M59.2 38.366C58.9378 38.8855 58.5148 39.3064 57.994 39.566C58.2585 39.0482 58.6808 38.6279 59.2 38.366Z" fill="black"></path>
<path d="M57.994 57.994C58.5145 58.2568 58.9372 58.6795 59.2 59.2C58.6795 58.9372 58.2568 58.5145 57.994 57.994Z" fill="black"></path>
<path d="M55.673 29.529C55.888 29.9 56.102 30.278 56.286 30.664C55.7872 30.8265 55.3181 31.069 54.897 31.382C54.125 31.982 53.633 32.876 52.915 33.547C51.9666 34.5773 50.8779 35.4691 49.681 36.196L48.936 36.126C48.872 36.0067 48.8207 35.881 48.783 35.751C48.9642 35.1988 48.9642 34.6032 48.783 34.051C49.0599 33.1881 49.5809 32.424 50.283 31.851C51.539 30.825 53.123 30.263 54.391 29.251C54.6477 29.0424 54.8903 28.8169 55.117 28.576C55.302 28.897 55.483 29.213 55.673 29.529Z" fill="black"></path>
<path d="M48.782 61.809C48.7439 61.6806 48.693 61.5563 48.63 61.438L47.772 61.418C48.108 61.258 48.392 61.218 48.58 61.359H48.986C49.766 60.77 52.197 63.349 52.915 64.016C53.633 64.683 54.124 65.577 54.897 66.181C55.3181 66.494 55.7872 66.7365 56.286 66.899C56.103 67.285 55.886 67.664 55.673 68.034C55.486 68.35 55.302 68.666 55.119 68.982C54.8933 68.7401 54.6507 68.5145 54.393 68.307C53.125 67.297 51.541 66.735 50.285 65.707C49.5821 65.1347 49.061 64.3703 48.785 63.507C48.9648 62.9551 48.9637 62.3603 48.782 61.809Z" fill="black"></path>
<path d="M52.134 23.474L55.119 28.574C54.8923 28.8149 54.6498 29.0404 54.393 29.249C53.125 30.259 51.541 30.821 50.285 31.849C49.583 32.422 49.062 33.1862 48.785 34.049C48.508 33.1862 47.987 32.422 47.285 31.849C46.029 30.823 44.445 30.261 43.177 29.249C42.9202 29.0404 42.6777 28.8149 42.451 28.574L45.436 23.474C45.7592 22.8131 46.2255 22.2324 46.801 21.774C47.4324 21.432 48.0981 21.1575 48.787 20.955C49.4759 21.1575 50.1416 21.432 50.773 21.774C51.347 22.2328 51.8119 22.8135 52.134 23.474Z" fill="white"></path>
<path d="M55.119 68.984L52.134 74.084C51.8087 74.7436 51.3428 75.3239 50.769 75.784C50.1368 76.1244 49.4713 76.3988 48.783 76.603C48.0947 76.3988 47.4292 76.1244 46.797 75.784C46.2232 75.3239 45.7573 74.7436 45.432 74.084L42.447 68.984C42.6727 68.7421 42.9153 68.5165 43.173 68.309C44.441 67.299 46.025 66.737 47.281 65.709C47.9839 65.1368 48.5051 64.3724 48.781 63.509C49.0569 64.3724 49.5781 65.1368 50.281 65.709C51.537 66.739 53.121 67.301 54.389 68.309C54.6481 68.5164 54.892 68.7419 55.119 68.984Z" fill="white"></path>
<path d="M48.782 35.751C48.8194 35.881 48.8704 36.0067 48.934 36.126L49.679 36.196C49.5735 36.2562 49.4545 36.2886 49.333 36.29C49.2116 36.2914 49.0918 36.2618 48.985 36.204H48.579C47.799 36.793 45.368 34.214 44.65 33.547C43.932 32.88 43.441 31.983 42.668 31.382C42.2469 31.069 41.7778 30.8265 41.279 30.664C41.462 30.278 41.679 29.899 41.892 29.529C42.079 29.213 42.263 28.897 42.446 28.581C42.6727 28.8219 42.9152 29.0474 43.172 29.256C44.44 30.266 46.024 30.828 47.28 31.856C47.982 32.429 48.503 33.1932 48.78 34.056C48.6005 34.6069 48.6012 35.2006 48.782 35.751Z" fill="black"></path>
<path d="M48.783 34.051C48.9642 34.6032 48.9642 35.1988 48.783 35.751C48.6018 35.1988 48.6018 34.6032 48.783 34.051Z" fill="black"></path>
<path d="M48.783 61.809C48.9642 62.3612 48.9642 62.9568 48.783 63.509C48.6018 62.9568 48.6018 62.3612 48.783 61.809Z" fill="black"></path>
<path d="M48.63 61.439C48.6929 61.5573 48.7439 61.6816 48.782 61.81C48.6008 62.3622 48.6008 62.9578 48.782 63.51C48.5061 64.3734 47.9849 65.1378 47.282 65.71C46.026 66.74 44.442 67.302 43.174 68.31C42.9163 68.5175 42.6737 68.7431 42.448 68.985C42.265 68.669 42.081 68.353 41.894 68.037C41.679 67.666 41.465 67.288 41.281 66.902C41.7798 66.7395 42.2489 66.497 42.67 66.184C43.442 65.584 43.934 64.684 44.652 64.019C45.579 63.0247 46.6276 62.1511 47.773 61.419L48.63 61.439Z" fill="black"></path>
<path d="M40.8 32.155C40.679 33.13 40.964 34.11 40.929 35.089C40.894 36.068 40.999 39.607 40.029 39.743L39.939 39.727C39.8108 39.6849 39.6866 39.6313 39.568 39.567C39.3035 39.0492 38.8811 38.6289 38.362 38.367C37.9503 37.561 37.7795 36.6535 37.87 35.753C38.03 34.138 38.756 32.62 38.939 31.009C38.9722 30.6798 38.9839 30.3487 38.974 30.018L40.035 30.299C40.449 30.408 40.87 30.525 41.276 30.666C41.0375 31.1332 40.8767 31.6361 40.8 32.155Z" fill="black"></path>
<path d="M40.929 62.476C40.964 63.455 40.679 64.434 40.8 65.406C40.8785 65.9266 41.0406 66.4311 41.28 66.9C40.874 67.04 40.453 67.157 40.039 67.267L38.978 67.544C38.9878 67.2146 38.9761 66.8849 38.943 66.557C38.76 64.942 38.034 63.428 37.874 61.813C37.7829 60.9125 37.9537 60.0048 38.366 59.199C38.8857 58.935 39.308 58.5127 39.572 57.993C39.69 57.9284 39.8143 57.8761 39.943 57.837L40.033 57.817C40.999 57.955 40.894 61.497 40.929 62.476Z" fill="black"></path>
<path d="M39.728 39.942L39.748 40.032C39.608 41 36.069 40.894 35.09 40.932C34.111 40.97 33.132 40.682 32.156 40.803C31.6373 40.8819 31.1344 41.0426 30.666 41.279C30.526 40.873 30.409 40.456 30.299 40.042C30.205 39.687 30.112 39.332 30.022 38.981C30.3514 38.9908 30.6811 38.9791 31.009 38.946C32.62 38.763 34.138 38.037 35.753 37.877C36.6536 37.7846 37.5616 37.9555 38.367 38.369C38.6292 38.8885 39.0522 39.3094 39.573 39.569C39.6339 39.6893 39.6857 39.814 39.728 39.942Z" fill="black"></path>
<path d="M39.747 57.533L39.727 57.623C39.6838 57.7502 39.6317 57.8742 39.571 57.994C39.0505 58.2568 38.6278 58.6795 38.365 59.2C37.559 59.6117 36.6515 59.7825 35.751 59.692C34.136 59.528 32.618 58.806 31.007 58.623C30.6791 58.5899 30.3494 58.5782 30.02 58.588C30.11 58.233 30.203 57.882 30.297 57.527C30.406 57.11 30.523 56.692 30.664 56.286C31.131 56.5259 31.6345 56.6867 32.154 56.762C33.129 56.887 34.109 56.602 35.088 56.637C36.067 56.672 39.611 56.562 39.747 57.533Z" fill="black"></path>
<path d="M38.979 30.017C38.9889 30.3477 38.9772 30.6788 38.944 31.008C38.761 32.619 38.035 34.137 37.875 35.752C37.7845 36.6525 37.9553 37.56 38.367 38.366C37.5617 37.9525 36.6536 37.7816 35.753 37.874C34.138 38.034 32.62 38.76 31.009 38.943C30.6811 38.9761 30.3514 38.9878 30.022 38.978C29.5187 37.07 29.0187 35.1637 28.522 33.259C28.2837 32.5624 28.2011 31.822 28.28 31.09C28.4882 30.4019 28.7653 29.7365 29.107 29.104C29.7395 28.7623 30.4049 28.4852 31.093 28.277C31.825 28.1981 32.5654 28.2807 33.262 28.519L38.979 30.017Z" fill="white"></path>
<path d="M38.944 66.557C38.9771 66.8849 38.9888 67.2146 38.979 67.544C37.071 68.0433 35.1647 68.5433 33.26 69.044C32.5635 69.283 31.8227 69.3643 31.091 69.282C30.4017 69.0772 29.736 68.8 29.105 68.455C28.7626 67.8242 28.4855 67.1601 28.278 66.473C28.1991 65.741 28.2817 65.0006 28.52 64.304C29.0193 62.396 29.5193 60.4897 30.02 58.585C30.3494 58.5752 30.6791 58.5869 31.007 58.62C32.618 58.803 34.136 59.525 35.751 59.689C36.6515 59.7795 37.559 59.6087 38.365 59.197C37.9527 60.0028 37.7819 60.9105 37.873 61.811C38.035 63.428 38.76 64.942 38.944 66.557Z" fill="white"></path>
<path d="M38.366 38.366C38.8852 38.6279 39.3075 39.0482 39.572 39.566C39.0512 39.3064 38.6282 38.8855 38.366 38.366Z" fill="black"></path>
<path d="M39.572 57.994C39.3081 58.5137 38.8857 58.9361 38.366 59.2C38.6288 58.6795 39.0515 58.2568 39.572 57.994Z" fill="black"></path>
<path d="M33.547 44.651C34.214 45.369 36.793 47.796 36.204 48.58L36.126 48.631C36.007 48.6923 35.8828 48.7431 35.755 48.783C35.2027 48.6026 34.6073 48.6026 34.055 48.783C33.1926 48.5051 32.4288 47.9842 31.855 47.283C30.829 46.027 30.267 44.443 29.255 43.175C29.0485 42.9164 28.8229 42.6738 28.58 42.449C28.896 42.266 29.212 42.082 29.528 41.895C29.899 41.68 30.277 41.466 30.663 41.279C30.8255 41.7791 31.068 42.2495 31.381 42.672C31.983 43.441 32.88 43.933 33.547 44.651Z" fill="black"></path>
<path d="M36.204 48.986C36.793 49.766 34.214 52.197 33.547 52.915C32.88 53.633 31.983 54.121 31.382 54.897C31.069 55.3181 30.8265 55.7872 30.664 56.286C30.278 56.103 29.899 55.886 29.529 55.67C29.213 55.487 28.897 55.303 28.581 55.116C28.8229 54.8917 29.0484 54.6504 29.256 54.394C30.266 53.126 30.828 51.538 31.856 50.282C32.4306 49.5816 33.1942 49.061 34.056 48.782C34.6083 48.9624 35.2037 48.9624 35.756 48.782C35.8844 48.8201 36.0087 48.8711 36.127 48.934L36.204 48.986Z" fill="black"></path>
<path d="M34.051 48.786C34.6033 48.6056 35.1987 48.6056 35.751 48.786C35.1987 48.9664 34.6033 48.9664 34.051 48.786Z" fill="black"></path>
<path d="M31.854 47.277C32.4278 47.9782 33.1916 48.4991 34.054 48.777C33.1922 49.056 32.4286 49.5767 31.854 50.277C30.828 51.533 30.266 53.121 29.254 54.389C29.0464 54.6454 28.8209 54.8867 28.579 55.111C26.8783 54.1203 25.1783 53.1267 23.479 52.13C22.8188 51.8056 22.2384 51.3395 21.779 50.765C21.4393 50.1325 21.1649 49.4671 20.96 48.779C21.1642 48.0894 21.4386 47.4226 21.779 46.789C22.2374 46.2143 22.8182 45.7491 23.479 45.427L28.579 42.442C28.8219 42.6668 29.0475 42.9094 29.254 43.168C30.267 44.441 30.828 46.025 31.854 47.277Z" fill="white"></path>
<path d="M57.818 57.533C57.958 56.562 61.497 56.671 62.476 56.633C63.455 56.595 64.434 56.883 65.41 56.758C65.9295 56.6827 66.433 56.5219 66.9 56.282" stroke="black" stroke-width="0.75" stroke-linecap="round" stroke-linejoin="round"></path>
<path d="M59.2 59.2C58.6795 58.9372 58.2568 58.5145 57.994 57.994" stroke="black" stroke-width="0.75" stroke-linecap="round" stroke-linejoin="round"></path>
<path d="M68.983 55.114C68.667 55.301 68.351 55.485 68.035 55.668C67.664 55.886 67.286 56.101 66.9 56.284" stroke="black" stroke-width="0.75" stroke-linecap="round" stroke-linejoin="round"></path>
<path d="M57.838 57.623C57.8812 57.7502 57.9333 57.8742 57.994 57.994" stroke="black" stroke-width="0.75" stroke-linecap="round" stroke-linejoin="round"></path>
<path d="M39.572 57.994C39.3081 58.5137 38.8857 58.9361 38.366 59.2" stroke="black" stroke-width="0.75" stroke-linecap="round" stroke-linejoin="round"></path>
<path d="M30.661 56.284C30.275 56.101 29.896 55.884 29.526 55.668C29.21 55.485 28.894 55.301 28.578 55.114" stroke="black" stroke-width="0.75" stroke-linecap="round" stroke-linejoin="round"></path>
<path d="M39.747 57.533C39.607 56.562 36.068 56.671 35.089 56.633C34.11 56.595 33.131 56.883 32.155 56.758C31.6355 56.6827 31.132 56.5219 30.665 56.282" stroke="black" stroke-width="0.75" stroke-linecap="round" stroke-linejoin="round"></path>
<path d="M39.727 57.623C39.6838 57.7502 39.6317 57.8742 39.571 57.994" stroke="black" stroke-width="0.75" stroke-linecap="round" stroke-linejoin="round"></path>
<path d="M66.9 41.276C67.04 40.87 67.157 40.453 67.267 40.039C67.361 39.684 67.454 39.329 67.544 38.978" stroke="black" stroke-width="0.75" stroke-linecap="round" stroke-linejoin="round"></path>
<path d="M63.514 48.782C62.9617 48.9624 62.3663 48.9624 61.814 48.782" stroke="black" stroke-width="0.75" stroke-linecap="round" stroke-linejoin="round"></path>
<path d="M61.439 48.63C61.558 48.6913 61.6822 48.7422 61.81 48.782" stroke="black" stroke-width="0.75" stroke-linecap="round" stroke-linejoin="round"></path>
<path d="M66.9 41.276C66.7375 41.7761 66.495 42.2465 66.182 42.669C65.582 43.441 64.682 43.933 64.017 44.651C63.352 45.369 60.771 47.796 61.36 48.58" stroke="black" stroke-width="0.75" stroke-linecap="round" stroke-linejoin="round"></path>
<path d="M48.782 63.509C48.9632 62.9568 48.9632 62.3612 48.782 61.809" stroke="black" stroke-width="0.75" stroke-linecap="round" stroke-linejoin="round"></path>
<path d="M48.63 61.439C48.6929 61.5573 48.7438 61.6816 48.782 61.81" stroke="black" stroke-width="0.75" stroke-linecap="round" stroke-linejoin="round"></path>
<path d="M48.579 61.36C48.392 61.22 48.107 61.26 47.771 61.419C46.6256 62.1511 45.577 63.0247 44.65 64.019C43.932 64.686 43.441 65.58 42.668 66.184C42.2469 66.497 41.7778 66.7395 41.279 66.902" stroke="black" stroke-width="0.75" stroke-linecap="round" stroke-linejoin="round"></path>
<path d="M38.978 67.544L40.039 67.267C40.453 67.158 40.874 67.041 41.28 66.9" stroke="black" stroke-width="0.75" stroke-linecap="round" stroke-linejoin="round"></path>
<path d="M57.533 39.743C56.565 39.606 56.671 36.068 56.633 35.089C56.595 34.11 56.883 33.131 56.762 32.155C56.6841 31.6355 56.522 31.1322 56.282 30.665" stroke="black" stroke-width="0.75" stroke-linecap="round" stroke-linejoin="round"></path>
<path d="M57.623 39.727C57.7512 39.6849 57.8754 39.6313 57.994 39.567" stroke="black" stroke-width="0.75" stroke-linecap="round" stroke-linejoin="round"></path>
<path d="M56.285 30.664C56.102 30.278 55.885 29.899 55.672 29.529C55.485 29.213 55.301 28.897 55.118 28.581" stroke="black" stroke-width="0.75" stroke-linecap="round" stroke-linejoin="round"></path>
<path d="M59.2 38.366C58.9378 38.8855 58.5148 39.3064 57.994 39.566" stroke="black" stroke-width="0.75" stroke-linecap="round" stroke-linejoin="round"></path>
<path d="M59.2 59.2C58.9372 58.6795 58.5145 58.2568 57.994 57.994" stroke="black" stroke-width="0.75" stroke-linecap="round" stroke-linejoin="round"></path>
<path d="M57.994 57.994C57.876 57.9294 57.7517 57.8771 57.623 57.838" stroke="black" stroke-width="0.75" stroke-linecap="round" stroke-linejoin="round"></path>
<path d="M55.118 68.983C55.301 68.667 55.485 68.351 55.672 68.035C55.887 67.664 56.101 67.286 56.285 66.9" stroke="black" stroke-width="0.75" stroke-linecap="round" stroke-linejoin="round"></path>
<path d="M57.533 57.818C56.565 57.955 56.671 61.497 56.633 62.476C56.595 63.455 56.883 64.434 56.762 65.406C56.6835 65.9266 56.5215 66.4311 56.282 66.9" stroke="black" stroke-width="0.75" stroke-linecap="round" stroke-linejoin="round"></path>
<path d="M38.978 30.017L40.039 30.298C40.453 30.407 40.874 30.524 41.28 30.665" stroke="black" stroke-width="0.75" stroke-linecap="round" stroke-linejoin="round"></path>
<path d="M48.579 36.205C47.799 36.794 45.368 34.215 44.65 33.548C43.932 32.881 43.441 31.984 42.668 31.383C42.2469 31.07 41.7778 30.8275 41.279 30.665" stroke="black" stroke-width="0.75" stroke-linecap="round" stroke-linejoin="round"></path>
<path d="M48.782 34.051C48.9632 34.6032 48.9632 35.1988 48.782 35.751" stroke="black" stroke-width="0.75" stroke-linecap="round" stroke-linejoin="round"></path>
<path d="M48.63 36.127C48.6936 36.0077 48.7446 35.882 48.782 35.752" stroke="black" stroke-width="0.75" stroke-linecap="round" stroke-linejoin="round"></path>
<path d="M61.356 48.985C60.767 49.765 63.346 52.196 64.013 52.914C64.68 53.632 65.577 54.12 66.178 54.896C66.491 55.3171 66.7335 55.7862 66.896 56.285" stroke="black" stroke-width="0.75" stroke-linecap="round" stroke-linejoin="round"></path>
<path d="M66.9 56.285C67.04 56.691 67.157 57.108 67.267 57.526C67.361 57.881 67.454 58.232 67.544 58.587" stroke="black" stroke-width="0.75" stroke-linecap="round" stroke-linejoin="round"></path>
<path d="M61.81 48.782C61.6816 48.8201 61.5573 48.8711 61.439 48.934" stroke="black" stroke-width="0.75" stroke-linecap="round" stroke-linejoin="round"></path>
<path d="M63.514 48.785C62.9617 48.6046 62.3663 48.6046 61.814 48.785" stroke="black" stroke-width="0.75" stroke-linecap="round" stroke-linejoin="round"></path>
<path d="M39.727 39.942C39.6845 39.8132 39.6324 39.6879 39.571 39.567" stroke="black" stroke-width="0.75" stroke-linecap="round" stroke-linejoin="round"></path>
<path d="M38.366 38.366C38.8852 38.6279 39.3075 39.0482 39.572 39.566" stroke="black" stroke-width="0.75" stroke-linecap="round" stroke-linejoin="round"></path>
<path d="M28.581 42.446C28.897 42.263 29.213 42.079 29.529 41.892C29.9 41.677 30.278 41.463 30.664 41.276" stroke="black" stroke-width="0.75" stroke-linecap="round" stroke-linejoin="round"></path>
<path d="M39.747 40.032C39.607 41 36.068 40.894 35.089 40.932C34.11 40.97 33.131 40.682 32.155 40.803C31.6363 40.8819 31.1334 41.0426 30.665 41.279" stroke="black" stroke-width="0.75" stroke-linecap="round" stroke-linejoin="round"></path>
<path d="M66.9 41.276C67.286 41.463 67.665 41.676 68.035 41.892C68.351 42.079 68.667 42.263 68.983 42.446" stroke="black" stroke-width="0.75" stroke-linecap="round" stroke-linejoin="round"></path>
<path d="M66.9 41.277C66.4316 41.0406 65.9287 40.8799 65.41 40.801C64.435 40.68 63.455 40.965 62.476 40.93C61.497 40.895 57.958 41 57.818 40.03" stroke="black" stroke-width="0.75" stroke-linecap="round" stroke-linejoin="round"></path>
<path d="M57.994 39.567C57.9326 39.6879 57.8805 39.8132 57.838 39.942" stroke="black" stroke-width="0.75" stroke-linecap="round" stroke-linejoin="round"></path>
<path d="M59.2 38.366C58.6809 38.6279 58.2585 39.0482 57.994 39.566" stroke="black" stroke-width="0.75" stroke-linecap="round" stroke-linejoin="round"></path>
<path d="M36.127 48.934C36.0087 48.8711 35.8844 48.8201 35.756 48.782" stroke="black" stroke-width="0.75" stroke-linecap="round" stroke-linejoin="round"></path>
<path d="M30.665 56.285C30.525 56.691 30.408 57.108 30.298 57.526C30.204 57.881 30.111 58.232 30.021 58.587" stroke="black" stroke-width="0.75" stroke-linecap="round" stroke-linejoin="round"></path>
<path d="M36.205 48.985C36.794 49.765 34.215 52.196 33.548 52.914C32.881 53.632 31.984 54.12 31.383 54.896C31.07 55.3171 30.8275 55.7862 30.665 56.285" stroke="black" stroke-width="0.75" stroke-linecap="round" stroke-linejoin="round"></path>
<path d="M34.051 48.785C34.6033 48.6046 35.1987 48.6046 35.751 48.785" stroke="black" stroke-width="0.75" stroke-linecap="round" stroke-linejoin="round"></path>
<path d="M48.782 35.752C48.8194 35.882 48.8704 36.0077 48.934 36.127" stroke="black" stroke-width="0.75" stroke-linecap="round" stroke-linejoin="round"></path>
<path d="M48.782 34.051C48.6008 34.6032 48.6008 35.1988 48.782 35.751" stroke="black" stroke-width="0.75" stroke-linecap="round" stroke-linejoin="round"></path>
<path d="M48.985 36.205C49.0918 36.2628 49.2116 36.2924 49.333 36.291C49.4545 36.2896 49.5735 36.2572 49.679 36.197C50.8759 35.4701 51.9646 34.5783 52.913 33.548C53.631 32.877 54.122 31.984 54.895 31.383C55.3161 31.07 55.7852 30.8275 56.284 30.665" stroke="black" stroke-width="0.75" stroke-linecap="round" stroke-linejoin="round"></path>
<path d="M58.587 30.017L57.526 30.298C57.112 30.407 56.691 30.524 56.285 30.665" stroke="black" stroke-width="0.75" stroke-linecap="round" stroke-linejoin="round"></path>
<path d="M39.942 57.838C39.8133 57.8771 39.689 57.9294 39.571 57.994" stroke="black" stroke-width="0.75" stroke-linecap="round" stroke-linejoin="round"></path>
<path d="M39.572 57.994C39.0515 58.2568 38.6288 58.6795 38.366 59.2" stroke="black" stroke-width="0.75" stroke-linecap="round" stroke-linejoin="round"></path>
<path d="M41.28 66.9C41.463 67.286 41.68 67.665 41.893 68.035C42.08 68.351 42.264 68.667 42.447 68.983" stroke="black" stroke-width="0.75" stroke-linecap="round" stroke-linejoin="round"></path>
<path d="M40.032 57.818C41 57.955 40.894 61.497 40.932 62.476C40.97 63.455 40.682 64.434 40.803 65.406C40.8815 65.9266 41.0436 66.4311 41.283 66.9" stroke="black" stroke-width="0.75" stroke-linecap="round" stroke-linejoin="round"></path>
<path d="M39.571 39.567C39.6896 39.6313 39.8138 39.6849 39.942 39.727" stroke="black" stroke-width="0.75" stroke-linecap="round" stroke-linejoin="round"></path>
<path d="M42.447 28.581C42.264 28.897 42.08 29.213 41.893 29.529C41.678 29.9 41.464 30.278 41.28 30.664" stroke="black" stroke-width="0.75" stroke-linecap="round" stroke-linejoin="round"></path>
<path d="M38.366 38.366C38.6282 38.8855 39.0512 39.3064 39.572 39.566" stroke="black" stroke-width="0.75" stroke-linecap="round" stroke-linejoin="round"></path>
<path d="M40.032 39.743C41 39.606 40.894 36.068 40.932 35.089C40.97 34.11 40.682 33.131 40.803 32.155C40.8809 31.6355 41.043 31.1322 41.283 30.665" stroke="black" stroke-width="0.75" stroke-linecap="round" stroke-linejoin="round"></path>
<path d="M55.119 28.581L52.134 23.481C51.8108 22.8201 51.3445 22.2394 50.769 21.781C50.1376 21.439 49.4719 21.1645 48.783 20.962C48.0941 21.1645 47.4284 21.439 46.797 21.781C46.2215 22.2394 45.7552 22.8201 45.432 23.481L42.447 28.581C42.6737 28.8219 42.9162 29.0474 43.173 29.256C44.441 30.266 46.025 30.828 47.281 31.856C47.983 32.429 48.504 33.1932 48.781 34.056C49.058 33.1932 49.579 32.429 50.281 31.856C51.537 30.83 53.121 30.268 54.389 29.256C54.6471 29.0476 54.891 28.822 55.119 28.581Z" stroke="black" stroke-width="0.75" stroke-linecap="round" stroke-linejoin="round"></path>
<path d="M48.985 61.36C49.765 60.771 52.196 63.35 52.914 64.017C53.632 64.684 54.123 65.578 54.896 66.182C55.3171 66.495 55.7862 66.7375 56.285 66.9" stroke="black" stroke-width="0.75" stroke-linecap="round" stroke-linejoin="round"></path>
<path d="M48.782 61.809C48.6008 62.3612 48.6008 62.9568 48.782 63.509" stroke="black" stroke-width="0.75" stroke-linecap="round" stroke-linejoin="round"></path>
<path d="M48.782 61.81C48.8202 61.6816 48.8711 61.5573 48.934 61.439" stroke="black" stroke-width="0.75" stroke-linecap="round" stroke-linejoin="round"></path>
<path d="M58.587 67.544L57.526 67.267C57.112 67.158 56.691 67.041 56.285 66.9" stroke="black" stroke-width="0.75" stroke-linecap="round" stroke-linejoin="round"></path>
<path d="M38.979 67.544C38.9888 67.2146 38.9771 66.8849 38.944 66.557C38.761 64.942 38.035 63.428 37.875 61.813C37.7839 60.9125 37.9547 60.0048 38.367 59.199C37.561 59.6107 36.6535 59.7815 35.753 59.691C34.138 59.527 32.62 58.805 31.009 58.622C30.6811 58.5889 30.3514 58.5772 30.022 58.587C29.5187 60.495 29.0187 62.4013 28.522 64.306C28.2837 65.0026 28.2011 65.743 28.28 66.475C28.4875 67.1621 28.7646 67.8262 29.107 68.457C29.738 68.802 30.4037 69.0792 31.093 69.284C31.8247 69.3662 32.5656 69.285 33.262 69.046C35.168 68.5467 37.0737 68.046 38.979 67.544Z" stroke="black" stroke-width="0.75" stroke-linecap="round" stroke-linejoin="round"></path>
<path d="M28.584 55.115C28.8259 54.8907 29.0515 54.6494 29.259 54.393C30.269 53.125 30.831 51.537 31.859 50.281C32.4336 49.5806 33.1972 49.06 34.059 48.781C33.1966 48.5031 32.4328 47.9822 31.859 47.281C30.833 46.025 30.271 44.441 29.259 43.173C29.0525 42.9144 28.8269 42.6718 28.584 42.447L23.484 45.432C22.8232 45.7541 22.2424 46.2193 21.784 46.794C21.4436 47.4276 21.1692 48.0944 20.965 48.784C21.1699 49.4721 21.4443 50.1375 21.784 50.77C22.2434 51.3445 22.8238 51.8106 23.484 52.135C25.1813 53.129 26.8813 54.1223 28.584 55.115Z" stroke="black" stroke-width="0.75" stroke-linecap="round" stroke-linejoin="round"></path>
<path d="M55.119 68.984C54.8933 68.7421 54.6507 68.5165 54.393 68.309C53.125 67.299 51.541 66.737 50.285 65.709C49.5821 65.1368 49.0609 64.3724 48.785 63.509C48.5091 64.3724 47.9879 65.1368 47.285 65.709C46.029 66.739 44.445 67.301 43.177 68.309C42.9193 68.5165 42.6767 68.7421 42.451 68.984L45.436 74.084C45.7613 74.7436 46.2272 75.3239 46.801 75.784C47.4332 76.1244 48.0987 76.3988 48.787 76.603C49.4753 76.3988 50.1408 76.1244 50.773 75.784C51.3468 75.3239 51.8127 74.7436 52.138 74.084L55.119 68.984Z" stroke="black" stroke-width="0.75" stroke-linecap="round" stroke-linejoin="round"></path>
<path d="M58.587 30.017C58.5772 30.3477 58.5889 30.6788 58.622 31.008C58.805 32.619 59.531 34.137 59.691 35.752C59.7815 36.6525 59.6107 37.56 59.199 38.366C60.0044 37.9525 60.9124 37.7816 61.813 37.874C63.428 38.034 64.946 38.76 66.557 38.943C66.8849 38.9761 67.2146 38.9878 67.544 38.978C68.0473 37.07 68.5473 35.1637 69.044 33.259C69.2823 32.5624 69.3649 31.822 69.286 31.09C69.0785 30.402 68.8021 29.7366 68.461 29.104C67.8285 28.7623 67.1631 28.4852 66.475 28.277C65.743 28.1981 65.0026 28.2807 64.306 28.519L58.587 30.017Z" stroke="black" stroke-width="0.75" stroke-linecap="round" stroke-linejoin="round"></path>
<path d="M68.984 55.115C70.6847 54.1243 72.3847 53.1307 74.084 52.134C74.7442 51.8096 75.3246 51.3435 75.784 50.769C76.1237 50.1365 76.3981 49.4711 76.603 48.783C76.3988 48.0934 76.1244 47.4265 75.784 46.793C75.3256 46.2183 74.7448 45.7531 74.084 45.431L68.984 42.446C68.7411 42.6708 68.5155 42.9134 68.309 43.172C67.299 44.44 66.737 46.024 65.709 47.28C65.1352 47.9812 64.3714 48.5021 63.509 48.78C64.3708 49.059 65.1344 49.5796 65.709 50.28C66.735 51.536 67.297 53.124 68.309 54.392C68.5165 54.6487 68.7421 54.8904 68.984 55.115Z" stroke="black" stroke-width="0.75" stroke-linecap="round" stroke-linejoin="round"></path>
<path d="M67.544 58.587C67.2146 58.5772 66.8849 58.5889 66.557 58.622C64.946 58.805 63.428 59.527 61.813 59.691C60.9125 59.7815 60.005 59.6107 59.199 59.199C59.6113 60.0048 59.7821 60.9125 59.691 61.813C59.531 63.428 58.805 64.942 58.622 66.557C58.5889 66.8849 58.5772 67.2146 58.587 67.544C60.495 68.0433 62.4013 68.5433 64.306 69.044C65.0025 69.283 65.7433 69.3643 66.475 69.282C67.1643 69.0772 67.83 68.8 68.461 68.455C68.8034 67.8242 69.0805 67.1601 69.288 66.473C69.3669 65.741 69.2843 65.0006 69.046 64.304C68.5467 62.3973 68.046 60.4917 67.544 58.587Z" stroke="black" stroke-width="0.75" stroke-linecap="round" stroke-linejoin="round"></path>
<path d="M38.366 38.366C37.9543 37.56 37.7835 36.6525 37.874 35.752C38.034 34.137 38.76 32.619 38.943 31.008C38.9762 30.6788 38.9879 30.3477 38.978 30.017L33.259 28.517C32.5624 28.2787 31.822 28.1961 31.09 28.275C30.4019 28.4832 29.7365 28.7603 29.104 29.102C28.7623 29.7345 28.4852 30.3999 28.277 31.088C28.1981 31.82 28.2807 32.5604 28.519 33.257C29.0183 35.165 29.5183 37.0713 30.019 38.976C30.3484 38.9858 30.6781 38.9741 31.006 38.941C32.617 38.758 34.135 38.032 35.75 37.872C36.6515 37.7798 37.5603 37.9514 38.366 38.366Z" stroke="black" stroke-width="0.75" stroke-linecap="round" stroke-linejoin="round"></path>
<path d="M36.205 48.579C36.794 47.795 34.215 45.368 33.548 44.65C32.881 43.932 31.984 43.441 31.383 42.668C31.07 42.2455 30.8275 41.7751 30.665 41.275" stroke="black" stroke-width="0.75" stroke-linecap="round" stroke-linejoin="round"></path>
<path d="M35.756 48.782C35.8838 48.7422 36.008 48.6913 36.127 48.63" stroke="black" stroke-width="0.75" stroke-linecap="round" stroke-linejoin="round"></path>
<path d="M34.051 48.782C34.6033 48.9624 35.1987 48.9624 35.751 48.782" stroke="black" stroke-width="0.75" stroke-linecap="round" stroke-linejoin="round"></path>
<path d="M30.665 41.276C30.525 40.87 30.408 40.453 30.298 40.039C30.204 39.684 30.111 39.329 30.021 38.978" stroke="black" stroke-width="0.75" stroke-linecap="round" stroke-linejoin="round"></path>
<path d="M48.588 57.869C53.5437 57.869 57.561 53.8517 57.561 48.896C57.561 43.9404 53.5437 39.923 48.588 39.923C43.6323 39.923 39.615 43.9404 39.615 48.896C39.615 53.8517 43.6323 57.869 48.588 57.869Z" fill="black" stroke="black" stroke-width="0.75" stroke-linecap="round" stroke-linejoin="round"></path>
</svg><style>@media (prefers-color-scheme: light) { :root { filter: none; } }
@media (prefers-color-scheme: dark) { :root { filter: none; } }
</style></svg>